<mxfile host="app.diagrams.net" modified="2024-02-03T16:28:46.768Z" agent="Mozilla/5.0 (Windows NT 10.0; Win64; x64) AppleWebKit/537.36 (KHTML, like Gecko) Chrome/121.0.0.0 Safari/537.36" etag="cd_UWuFeHZKCgUgKaoi5" version="23.1.1" type="device">
  <diagram name="Page-1" id="c4acf3e9-155e-7222-9cf6-157b1a14988f">
    <mxGraphModel dx="1366" dy="735" grid="1" gridSize="10" guides="1" tooltips="1" connect="1" arrows="1" fold="1" page="1" pageScale="1" pageWidth="1100" pageHeight="850" background="none" math="0" shadow="0">
      <root>
        <mxCell id="0" />
        <mxCell id="1" parent="0" />
        <mxCell id="5d2195bd80daf111-17" value="«static»&lt;br&gt;&lt;b&gt;MAIN&lt;/b&gt;" style="html=1;rounded=0;shadow=0;comic=0;labelBackgroundColor=none;strokeWidth=1;fontFamily=Verdana;fontSize=10;align=center;" parent="1" vertex="1">
          <mxGeometry x="390" y="100" width="120" height="50" as="geometry" />
        </mxCell>
        <mxCell id="twIWYvA_U80yxCXueQZU-12" value="" style="edgeStyle=orthogonalEdgeStyle;rounded=0;orthogonalLoop=1;jettySize=auto;html=1;entryX=0;entryY=0.5;entryDx=0;entryDy=0;" edge="1" parent="1" source="twIWYvA_U80yxCXueQZU-2" target="twIWYvA_U80yxCXueQZU-3">
          <mxGeometry relative="1" as="geometry" />
        </mxCell>
        <mxCell id="twIWYvA_U80yxCXueQZU-13" value="" style="edgeStyle=orthogonalEdgeStyle;rounded=0;orthogonalLoop=1;jettySize=auto;html=1;entryX=0;entryY=0.5;entryDx=0;entryDy=0;" edge="1" parent="1" source="twIWYvA_U80yxCXueQZU-2" target="twIWYvA_U80yxCXueQZU-5">
          <mxGeometry relative="1" as="geometry" />
        </mxCell>
        <mxCell id="twIWYvA_U80yxCXueQZU-2" value="&lt;p style=&quot;margin:0px;margin-top:4px;text-align:center;&quot;&gt;&lt;i&gt;&amp;lt;&amp;lt;sealed class&amp;gt;&amp;gt;&lt;/i&gt;&lt;br&gt;&lt;b&gt;Car&lt;/b&gt;&lt;/p&gt;&lt;hr size=&quot;1&quot;&gt;&lt;p style=&quot;margin:0px;margin-left:4px;&quot;&gt;+ Brand: string&lt;br style=&quot;border-color: var(--border-color);&quot;&gt;&lt;span style=&quot;&quot;&gt;+ Model: string&lt;/span&gt;&lt;br style=&quot;border-color: var(--border-color);&quot;&gt;&lt;span style=&quot;&quot;&gt;+ MaxSpeed: int&lt;/span&gt;&lt;br style=&quot;border-color: var(--border-color);&quot;&gt;&lt;span style=&quot;&quot;&gt;+ HorsePower: int&lt;/span&gt;&lt;br&gt;&lt;/p&gt;&lt;hr size=&quot;1&quot;&gt;&lt;p style=&quot;margin:0px;margin-left:4px;&quot;&gt;+ internal CreateCar(): Car&lt;br&gt;&lt;/p&gt;" style="verticalAlign=top;align=left;overflow=fill;fontSize=12;fontFamily=Helvetica;html=1;rounded=0;shadow=0;comic=0;labelBackgroundColor=none;strokeWidth=1" vertex="1" parent="1">
          <mxGeometry x="70" y="100" width="200" height="140" as="geometry" />
        </mxCell>
        <mxCell id="twIWYvA_U80yxCXueQZU-17" value="" style="edgeStyle=orthogonalEdgeStyle;rounded=0;orthogonalLoop=1;jettySize=auto;html=1;" edge="1" parent="1" source="twIWYvA_U80yxCXueQZU-3" target="twIWYvA_U80yxCXueQZU-14">
          <mxGeometry relative="1" as="geometry" />
        </mxCell>
        <mxCell id="twIWYvA_U80yxCXueQZU-3" value="firstCar" style="html=1;whiteSpace=wrap;" vertex="1" parent="1">
          <mxGeometry x="390" y="190" width="120" height="50" as="geometry" />
        </mxCell>
        <mxCell id="twIWYvA_U80yxCXueQZU-5" value="secondCar" style="html=1;whiteSpace=wrap;" vertex="1" parent="1">
          <mxGeometry x="390" y="280" width="120" height="50" as="geometry" />
        </mxCell>
        <mxCell id="twIWYvA_U80yxCXueQZU-6" value="FactoryMethod.sln" style="swimlane;" vertex="1" parent="1">
          <mxGeometry x="20" y="20" width="1060" height="350" as="geometry">
            <mxRectangle x="870" y="280" width="150" height="30" as="alternateBounds" />
          </mxGeometry>
        </mxCell>
        <mxCell id="twIWYvA_U80yxCXueQZU-7" value="Automotive" style="shape=umlFrame;whiteSpace=wrap;html=1;pointerEvents=0;width=80;height=30;" vertex="1" parent="1">
          <mxGeometry x="30" y="60" width="280" height="200" as="geometry" />
        </mxCell>
        <mxCell id="twIWYvA_U80yxCXueQZU-8" value="Racing" style="shape=umlFrame;whiteSpace=wrap;html=1;pointerEvents=0;width=80;height=30;" vertex="1" parent="1">
          <mxGeometry x="350" y="60" width="710" height="290" as="geometry" />
        </mxCell>
        <mxCell id="twIWYvA_U80yxCXueQZU-9" value="" style="endArrow=open;endSize=12;dashed=1;html=1;rounded=0;exitX=1;exitY=0.25;exitDx=0;exitDy=0;edgeStyle=orthogonalEdgeStyle;entryX=0;entryY=0.5;entryDx=0;entryDy=0;" edge="1" parent="1" source="twIWYvA_U80yxCXueQZU-2" target="5d2195bd80daf111-17">
          <mxGeometry width="160" relative="1" as="geometry">
            <mxPoint x="300" y="185.5" as="sourcePoint" />
            <mxPoint x="460" y="185.5" as="targetPoint" />
          </mxGeometry>
        </mxCell>
        <mxCell id="twIWYvA_U80yxCXueQZU-14" value="firstCar.MaxSpeed&lt;br&gt;&amp;gt; secondCar.MaxSpeed" style="rhombus;whiteSpace=wrap;html=1;fontColor=#000000;fillColor=#ffffc0;strokeColor=#ff0000;" vertex="1" parent="1">
          <mxGeometry x="550" y="100" width="190" height="94" as="geometry" />
        </mxCell>
        <mxCell id="twIWYvA_U80yxCXueQZU-15" value="no" style="edgeStyle=orthogonalEdgeStyle;html=1;align=left;verticalAlign=bottom;endArrow=open;endSize=8;strokeColor=#ff0000;rounded=0;entryX=1.03;entryY=0.513;entryDx=0;entryDy=0;entryPerimeter=0;exitX=1;exitY=0.5;exitDx=0;exitDy=0;" edge="1" source="twIWYvA_U80yxCXueQZU-22" parent="1" target="twIWYvA_U80yxCXueQZU-21">
          <mxGeometry x="0.8737" y="-21" relative="1" as="geometry">
            <mxPoint x="1000" y="214" as="targetPoint" />
            <mxPoint x="1060" y="110" as="sourcePoint" />
            <mxPoint as="offset" />
          </mxGeometry>
        </mxCell>
        <mxCell id="twIWYvA_U80yxCXueQZU-16" value="yes" style="edgeStyle=orthogonalEdgeStyle;html=1;align=left;verticalAlign=top;endArrow=open;endSize=8;strokeColor=#ff0000;rounded=0;" edge="1" source="twIWYvA_U80yxCXueQZU-14" parent="1">
          <mxGeometry x="-1" relative="1" as="geometry">
            <mxPoint x="645" y="230" as="targetPoint" />
            <Array as="points">
              <mxPoint x="645" y="220" />
              <mxPoint x="645" y="220" />
            </Array>
          </mxGeometry>
        </mxCell>
        <mxCell id="twIWYvA_U80yxCXueQZU-18" value="" style="edgeStyle=orthogonalEdgeStyle;rounded=0;orthogonalLoop=1;jettySize=auto;html=1;entryX=0;entryY=0.5;entryDx=0;entryDy=0;exitX=1;exitY=0.5;exitDx=0;exitDy=0;" edge="1" parent="1" source="twIWYvA_U80yxCXueQZU-5" target="twIWYvA_U80yxCXueQZU-14">
          <mxGeometry relative="1" as="geometry">
            <mxPoint x="500" y="272" as="sourcePoint" />
            <mxPoint x="540" y="204" as="targetPoint" />
            <Array as="points">
              <mxPoint x="530" y="305" />
              <mxPoint x="530" y="147" />
            </Array>
          </mxGeometry>
        </mxCell>
        <mxCell id="twIWYvA_U80yxCXueQZU-19" value="firstCar wins" style="shape=umlBoundary;whiteSpace=wrap;html=1;rotation=-90;" vertex="1" parent="1">
          <mxGeometry x="595" y="240" width="100" height="80" as="geometry" />
        </mxCell>
        <mxCell id="twIWYvA_U80yxCXueQZU-21" value="Tie" style="shape=umlBoundary;whiteSpace=wrap;html=1;rotation=-90;" vertex="1" parent="1">
          <mxGeometry x="950" y="240" width="100" height="80" as="geometry" />
        </mxCell>
        <mxCell id="twIWYvA_U80yxCXueQZU-22" value="firstCar.MaxSpeed&lt;br&gt;&amp;lt; secondCar.MaxSpeed" style="rhombus;whiteSpace=wrap;html=1;fontColor=#000000;fillColor=#ffffc0;strokeColor=#ff0000;" vertex="1" parent="1">
          <mxGeometry x="740" y="100" width="190" height="94" as="geometry" />
        </mxCell>
        <mxCell id="twIWYvA_U80yxCXueQZU-23" value="yes" style="edgeStyle=orthogonalEdgeStyle;html=1;align=left;verticalAlign=top;endArrow=open;endSize=8;strokeColor=#ff0000;rounded=0;" edge="1" parent="1" source="twIWYvA_U80yxCXueQZU-22">
          <mxGeometry x="-1" relative="1" as="geometry">
            <mxPoint x="835" y="230" as="targetPoint" />
            <Array as="points">
              <mxPoint x="835" y="220" />
              <mxPoint x="835" y="220" />
            </Array>
          </mxGeometry>
        </mxCell>
        <mxCell id="twIWYvA_U80yxCXueQZU-24" value="secondCar wins" style="shape=umlBoundary;whiteSpace=wrap;html=1;rotation=-90;" vertex="1" parent="1">
          <mxGeometry x="785" y="240" width="100" height="80" as="geometry" />
        </mxCell>
      </root>
    </mxGraphModel>
  </diagram>
</mxfile>
